<svg height="512pt" viewBox="-61 0 512 512" width="512pt" xmlns="http://www.w3.org/2000/svg"><path d="m145.296875 228.664062 42.425781 42.425782-84.855468 84.851562 21.214843 21.214844 84.851563-84.851562 42.425781 42.425781 84.855469-84.851563-106.066406-106.066406zm106.0625 63.640626-63.636719-63.640626 42.425782-42.425781 63.636718 63.640625zm0 0"/><path d="m45 512h345c0-44.46875 0-496.203125 0-512h-345c-24.8125 0-45 20.1875-45 45v422c0 24.8125 20.1875 45 45 45zm315-90h-270v-392h30v83.214844l45 45 45-45v-83.214844h150zm-210-392h30v70.785156l-15 15-15-15zm-105 0h15v392h-15c-5.257812 0-10.304688.914062-15 2.578125v-379.578125c0-8.269531 6.730469-15 15-15zm0 422h315v30h-315c-8.269531 0-15-6.730469-15-15s6.730469-15 15-15zm0 0"/><path d="m240 362h90v30h-90zm0 0"/></svg>