<svg height="512pt" viewBox="-91 0 512 512" width="512pt" xmlns="http://www.w3.org/2000/svg"><path d="m150 512v-71.636719l31.386719-49.363281h148.613281v-391h-240v129.785156l-90 90v159.753906l30 60v72.460938zm150-151h-30c0-16.542969 13.457031-30 30-30zm0-301c-16.542969 0-30-13.457031-30-30h30zm-180-30.011719h30c0 16.542969-13.457031 30.011719-30 30.011719zm0 60.011719c33.085938 0 60-26.914062 60-60h60c0 33.085938 26.914062 60 60 60v211c-33.085938 0-60 26.914062-60 60h-39.542969l34.449219-54.183594.347656-.691406c8.90625-17.816406 4.695313-39.085938-8.925781-52.402344 25.171875-7.128906 43.671875-30.300781 43.671875-57.722656 0-33.085938-26.914062-60-60-60s-60 26.914062-60 60c0 20.378906 10.222656 38.40625 25.800781 49.257812-7.167969 3.390626-13.527343 8.714844-18.242187 15.78125l-26.640625 39.960938h-10.917969c0-20.472656 0-189.253906 0-211zm90 136c-16.542969 0-30-13.457031-30-30s13.457031-30 30-30 30 13.457031 30 30-13.457031 30-30 30zm-180 6.214844 60-60v158.773437h56.972656l35.542969-53.300781c4.296875-6.441406 12.652344-8.582031 19.484375-4.957031 6.972656 3.667969 9.886719 12.261719 6.691406 19.402343l-88.691406 139.503907v50.363281h-60v-49.539062l-30-60zm0 0"/></svg>