<svg height="511pt" viewBox="-75 1 511 511.999" width="511pt" xmlns="http://www.w3.org/2000/svg"><path d="m1.332031 282.835938c4.0625 39.984374 22.640625 82.585937 40.605469 123.785156 13.699219 31.417968 27.867188 63.90625 34.820312 93.777344l2.699219 11.601562h203.820313l2.699218-11.601562c6.914063-29.722657 21.042969-62.140626 34.707032-93.496094 17.972656-41.238282 36.558594-83.886719 40.648437-123.9375 4.898438-47.964844-11.488281-85.359375-50.105469-114.320313-32.132812-24.097656-46.597656-64.847656-36.855468-103.8125l8.707031-34.832031h33.289063v-30h-270v30h33.289062l8.707031 34.832031c9.738281 38.96875-4.726562 79.714844-36.859375 103.8125-38.625 28.96875-55.035156 66.324219-50.171875 114.191407zm101.667969 199.164062c-2.867188-10.265625-6.351562-20.621094-10.207031-31h13.574219v-30h30v30h90v-30h30v29.988281h13.582031c-3.859375 10.386719-7.347657 20.753907-10.214844 31.011719zm63.367188-219.785156v68.785156h-30v-68.785156l15-15zm-48.761719-142.214844c2.402343-9.757812 3.675781-19.820312 3.742187-30h120.035156c.070313 10.179688 1.339844 20.242188 3.742188 30zm134.550781-90c-5.480469 22.007812-6.253906 24.78125-7.453125 30h-126.671875c-1.054688-4.589844 1.519531 6.042969-7.453125-30zm-182.652344 162.644531c15.519532-11.636719 27.863282-26.261719 36.613282-42.644531h30.25v69.785156l-30 30v111.214844h90v-111.214844l-30-30v-69.785156h90.25c8.75 16.382812 21.09375 31.007812 36.613281 42.644531 29.894531 22.421875 42.050781 50.152344 38.257812 87.273438-3.613281 35.398437-21.25 75.867187-38.304687 115.003906-2.269532 5.207031-4.550782 10.445313-6.816406 15.703125v-19.625h-90v30h-30v-30h-90v19.585938c-2.300782-5.34375-4.621094-10.664063-6.929688-15.957032-17.042969-39.085937-34.667969-79.503906-38.257812-114.828125-3.765626-37.027343 8.414062-64.722656 38.324218-87.15625zm0 0"/></svg>