<svg height="512pt" viewBox="0 0 512 512" width="512pt" xmlns="http://www.w3.org/2000/svg"><path d="m0 30h30v346.039062c-18.203125 13.699219-30 35.476563-30 59.960938v76h512v-76c0-23.460938-11.003906-45.113281-30-59.515625 0-14.511719 0-331.890625 0-346.484375h30v-30h-512zm180 60v15c0 52.027344-29.152344 97.3125-71.863281 120.179688 16.996093-22.992188 26.863281-51.320313 26.863281-80.957032v-24.222656h-30v24.222656c0 34.824219-17.414062 67.328125-45 86.695313v-140.917969zm163.566406 276.273438c-8.539062-3.390626-17.835937-5.273438-27.566406-5.273438-5.136719 0-10.152344.519531-15 1.507812v-61.507812h30v-30h-151v30h30v61.484375c-4.894531-.976563-9.910156-1.484375-15-1.484375-9.730469 0-19.027344 1.882812-27.566406 5.273438l-35.9375-119.96875c47.070312-29.273438 78.503906-81.660157 78.503906-141.304688v-15h91v15c0 44.074219 17.339844 85.6875 48.828125 117.171875 9.136719 9.140625 19.132813 17.074219 29.789063 23.753906zm-87.714844 24.980468c-4.449218-5.835937-9.789062-11.09375-15.851562-15.535156v-74.71875h31v75.039062c-5.746094 4.324219-10.851562 9.449219-15.148438 15.214844zm-195.851562-120.945312c15.460938-1.410156 30.316406-4.96875 44.257812-10.386719l37.074219 123.761719c-2.261719 2.320312-4.382812 4.773437-6.332031 7.367187-13.695312-18.234375-35.492188-30.050781-60-30.050781-5.136719 0-10.152344.519531-15 1.507812zm60 211.691406h-90v-46c0-24.8125 20.1875-45 45-45s45 20.1875 45 45zm121 0h-91v-46c0-24.8125 20.1875-45 45-45 24.933594 0 46 20.605469 46 45zm120 0h-90v-46c0-24.8125 20.1875-45 45-45s45 20.1875 45 45zm121 0h-91v-46c0-24.8125 20.1875-45 45-45 24.933594 0 46 20.605469 46 45zm-46-121c-24.507812 0-46.304688 11.816406-60 30.050781-1.949219-2.59375-4.070312-5.046875-6.332031-7.367187l37.152343-124.03125c14.390626 5.652344 29.570313 9.25 45.179688 10.660156v92.390625c-5.210938-1.113281-10.5625-1.703125-16-1.703125zm16-133.316406c-19.347656-17.625-31-42.636719-31-68.765625v-38.917969h-30v38.917969c0 25.855469 8.566406 50.859375 23.519531 71.542969-49.007812-20.574219-83.519531-69.0625-83.519531-125.460938v-15h121zm0-167.683594h-392v-30h392zm0 0"/></svg>