<svg height="512pt" viewBox="0 -66 512 511" width="512pt" xmlns="http://www.w3.org/2000/svg"><path d="m403.027344 155.675781c11.820312-23.03125 17.972656-48.492187 17.972656-75.039062v-15h-15c-30.292969 0-59.652344 8.34375-85.085938 23.652343-17.824218-46.226562-53.203124-78.304687-54.90625-79.828124l-10.007812-8.960938-10.007812 8.960938c-1.703126 1.523437-37.082032 33.601562-54.90625 79.828124-25.433594-15.308593-54.789063-23.652343-85.085938-23.652343h-15v15c0 26.546875 6.152344 52.007812 17.972656 75.039062-.988281-.015625-1.980468-.039062-2.972656-.039062h-106v45c0 46.96875 16.9375 92.347656 47.691406 127.773437 26.289063 30.28125 63.34375 47.753906 104.339844 49.199219 38.105469 1.34375 75.390625-11.796875 103.9375-36.328125 26.175781 22.664062 60.285156 36.121094 95.121094 37.257812 41.320312 1.335938 77.710937-13.933593 103.796875-40.019531 36.828125-36.828125 57.113281-85.796875 57.113281-137.882812v-45h-106c-.992188 0-1.984375.023437-2.972656.039062zm-37.769532 4.261719c-34.671874 7.390625-66.613281 24.109375-92.46875 48.351562 4.027344-24.5 14.769532-47.347656 31.664063-66.613281 22.125-25.234375 52.695313-41.1875 85.628906-45.097656-2.664062 22.945313-11.105469 44.53125-24.824219 63.359375zm-109.238281-117.886719c11.671875 12.886719 30.503907 36.878907 39.667969 65.902344-4.839844 4.351563-9.453125 8.996094-13.792969 13.945313-10.636719 12.132812-19.3125 25.65625-25.894531 40.089843-6.582031-14.433593-15.257812-27.957031-25.894531-40.089843-4.339844-4.949219-8.953125-9.59375-13.789063-13.941407 9.148438-28.914062 28.027344-52.980469 39.703125-65.90625zm-134.101562 54.527344c32.933593 3.910156 63.503906 19.863281 85.628906 45.097656 16.894531 19.265625 27.636719 42.113281 31.664063 66.613281-25.855469-24.242187-57.796876-40.960937-92.46875-48.351562-13.71875-18.828125-22.160157-40.414062-24.824219-63.359375zm360.082031 104.058594c0 44.074219-17.164062 85.507812-48.328125 116.671875-21.175781 21.175781-50.15625 32.269531-81.605469 31.246094-30.832031-1.003907-60.933594-13.996094-82.582031-35.644532l-13.484375-13.488281-13.054688 13.054687c-23.523437 23.523438-56.265624 36.332032-89.855468 35.152344-32.585938-1.148437-61.972656-14.957031-82.742188-38.886718-26.019531-29.96875-40.347656-68.363282-40.347656-108.105469v-15h76c55.378906 0 106.78125 27.617187 137.503906 73.878906l12.496094 18.8125 12.496094-18.8125c30.722656-46.261719 82.125-73.878906 137.503906-73.878906h76zm0 0"/><path d="m293.484375 276.109375-7.65625 11.757813 9.972656 8.554687c16.679688 14.3125 37.859375 22.191406 59.648438 22.191406 15.273437 0 37.390625-3.90625 56.015625-22.515625 18.015625-18.011718 30.566406-39.363281 36.300781-61.742187l4.796875-18.722657h-46.5625c-45.300781.003907-87.363281 22.609376-112.515625 60.476563zm96.773437-1.226563c-11.359374 11.347657-25.199218 13.730469-34.808593 13.730469-9.773438 0-19.640625-2.507812-28.4375-7.082031 19.839843-22.691406 48.472656-35.894531 78.988281-35.894531h5.644531c-5.214843 10.390625-12.433593 20.292969-21.386719 29.246093zm0 0"/><path d="m106 215.636719h-46.550781l4.835937 18.742187c4.902344 19.027344 15.175782 37.941406 29.714844 54.710938 16.023438 18.453125 38.699219 28.617187 63.855469 28.617187 21.347656 0 42.035156-7.550781 58.246093-21.257812l10.277344-8.6875-7.894531-11.695313c-25.15625-37.839844-67.203125-60.429687-112.484375-60.429687zm51.855469 72.066406c-16.332031 0-30.964844-6.492187-41.195313-18.277344-6.558594-7.5625-11.996094-15.589843-16.15625-23.792969h5.496094c30.453125 0 59.035156 13.152344 78.871094 35.761719-8.269532 4.15625-17.417969 6.308594-27.015625 6.308594zm0 0"/></svg>