<svg height="512pt" viewBox="-16 0 512 512" width="512pt" xmlns="http://www.w3.org/2000/svg"><path d="m98.855469 269.832031-68.835938 68.835938v83.269531h-30.019531v90.0625h420.289062v-90.0625h-60.042968v-62.042969h45.03125c41.382812 0 75.050781-33.667969 75.050781-75.050781v-90.0625c0-21.363281-14.957031-39.285156-34.945313-43.875l-21.648437-46.21875 55.105469-20.058594-30.804688-84.628906-141.050781 51.339844 30.804687 84.628906 57.621094-20.972656 18.753906 40.039062c-14.203124 7.582032-23.898437 22.550782-23.898437 39.746094v75.050781h-120.082031v-15.5c18.265625-14.417969 30.023437-37.488281 30.023437-62.761719v-131.878906h-150.105469v135.089844c0 23.371094 10.847657 45.636719 30.023438 60.023438v15.027343zm246.605469-200.550781 84.632812-30.804688 10.265625 28.210938-84.628906 30.804688zm-285.417969 281.824219 51.246093-51.25h13.855469l51.632813 122.082031h-56.703125v-62.039062h-30.011719v62.039062h-30.019531zm330.226562 130.875h-360.246093v-30.023438h360.246093zm60.039063-272.1875h-30.019532v-15.011719c0-8.277344 6.734376-15.007812 15.011719-15.007812 8.273438 0 15.007813 6.730468 15.007813 15.007812zm-30.019532 90.0625v-60.042969h30.019532v45.03125c0 24.832031-20.199219 45.03125-45.03125 45.03125h-75.050782v92.0625h-56.691406l51.632813-122.082031zm-127.71875 0-51.632812 122.082031h-31.566406l-51.632813-122.082031h31.179688l15.007812 15.007812-19.40625 19.410157 21.230469 21.226562 19.40625-19.40625 19.40625 19.40625 21.226562-21.226562-19.40625-19.410157 15.011719-15.007812zm-68.097656-60.042969c-24.796875-.332031-44.347656-20.660156-44.347656-45.027344v-65.777344l45.03125 22.515626 45.027344-22.515626v62.5625c.003906 25.128907-18.347656 48.613282-45.710938 48.242188zm45.714844-150.101562v5.734374l-45.03125 22.511719-45.03125-22.511719v-5.734374zm-44.890625 180.105468c4.960937 0 9.878906-.46875 14.867187-1.472656v10.285156l-15.007812 15.007813-15.011719-15.007813v-10.351562c4.957031 1.007812 10.03125 1.539062 15.152344 1.539062zm0 0"/></svg>