<svg height="512pt" viewBox="0 0 512 512" width="512pt" xmlns="http://www.w3.org/2000/svg"><path d="m467 62c8.269531 0 15 6.730469 15 15h30c0-19.554688-12.539062-36.226562-30-42.421875v-34.578125h-30v34.578125c-17.460938 6.195313-30 22.867187-30 42.421875 0 24.8125 20.1875 45 45 45 8.269531 0 15 6.730469 15 15s-6.730469 15-15 15-15-6.730469-15-15h-30c0 19.554688 12.539062 36.226562 30 42.421875v32.578125h30v-32.578125c17.460938-6.195313 30-22.867187 30-42.421875 0-24.8125-20.1875-45-45-45-8.269531 0-15-6.730469-15-15s6.730469-15 15-15zm0 0"/><path d="m57.425781 482h185.152344c6.195313 17.457031 22.867187 30 42.421875 30h75v-30h61v-30h-61v-30h-75c-19.554688 0-36.226562 12.542969-42.421875 30h-185.152344c-15.121093 0-27.425781-12.304688-27.425781-27.425781 0-7.328125 2.851562-14.214844 8.03125-19.394531l34.835938-34.835938 30.707031 30.707031 188.5625-150.847656 24.683593 24.683594 21.210938-21.214844-17.777344-17.777344c14.539063-5.179687 27.875-13.53125 38.992188-24.648437 40.9375-40.9375 40.9375-107.554688 0-148.492188s-107.554688-40.9375-148.492188 0c-11.117187 11.117188-19.46875 24.453125-24.648437 38.992188l-17.777344-17.777344-21.214844 21.210938 24.683594 24.683593-150.847656 188.5625 30.707031 30.707031-34.835938 34.835938c-10.847656 10.84375-16.820312 25.265625-16.820312 40.605469 0 31.664062 25.761719 57.425781 57.425781 57.425781zm227.574219-30h45v30h-45c-8.269531 0-15-6.730469-15-15s6.730469-15 15-15zm-53.03125-368.03125c29.242188-29.246094 76.820312-29.246094 106.0625 0 29.242188 29.242188 29.242188 76.820312 0 106.0625-11.539062 11.542969-26.417969 18.933594-42.429688 21.210938l-84.84375-84.84375c2.277344-16.011719 9.667969-30.890626 21.210938-42.429688zm-38.828125 67.238281 77.652344 77.652344-164.992188 131.992187-44.652343-44.652343zm0 0"/><path d="m178.933594 221.851562 21.214844 21.210938-42.425782 42.425781-21.214844-21.210937zm0 0"/></svg>