<svg height="512pt" viewBox="0 -46 512 512" width="512pt" xmlns="http://www.w3.org/2000/svg"><path d="m436 90c-13.351562 0-25.8125-5.539062-34.191406-15.191406-41.25-47.542969-101.015625-74.808594-163.976563-74.808594h-84.667969c-73 0-110.234374 36.0625-150.644531 96.679688l-2.519531 3.777343v139.542969h68.070312c10.394532 17.914062 29.769532 30 51.929688 30s41.535156-12.085938 51.929688-30h54.070312v38.785156l-30 30v111.214844h90v-111.214844l-30-30v-38.785156h53.070312c10.394532 17.914062 29.769532 30 51.929688 30s41.535156-12.085938 51.929688-30h99.070312v-75c0-41.460938-34.535156-75-76-75zm-180 300h-30v-68.785156l15-15 15 15zm119.132812-300h-164.132812v-60h26.832031c52.253907 0 101.945313 21.800781 137.300781 60zm-221.964843-60h27.832031v60h-137.078125c30.082031-39.816406 58.976563-60 109.246094-60zm-33.167969 210c-16.542969 0-30-13.457031-30-30s13.457031-30 30-30 30 13.457031 30 30-13.457031 30-30 30zm241 0c-16.542969 0-30-13.457031-30-30s13.457031-30 30-30 30 13.457031 30 30-13.457031 30-30 30zm121-30h-61c0-33.085938-26.914062-60-60-60s-60 26.914062-60 60h-45v-30h30v-30h-90v30h30v30h-46c0-33.085938-26.914062-60-60-60s-60 26.914062-60 60h-30v-90h406c24.933594 0 46 20.605469 46 45zm0 0"/></svg>