<svg height="512pt" viewBox="0 0 512 512" width="512pt" xmlns="http://www.w3.org/2000/svg"><path d="m512 361h-109.050781c11.535156-22.515625 18.050781-48.011719 18.050781-75 0-82.300781-60.570312-150.71875-139.476562-163.023438l53.824218-79.839843-43.132812-43.136719h-72.429688l-43.132812 43.136719 53.824218 79.839843c-78.90625 12.304688-139.476562 80.722657-139.476562 163.023438 0 26.988281 6.515625 52.484375 18.050781 75h-109.050781v151h512zm-279.785156-331h47.570312l16.867188 16.863281-40.652344 60.300781-40.652344-60.300781zm17.261718 120.960938h13.042969c71.425781 3.414062 128.480469 62.785156 128.480469 135.039062 0 74.4375-60.5625 135-135 135s-135-60.5625-135-135c0-72.253906 57.054688-131.625 128.476562-135.039062zm232.523438 331.039062h-452v-91h98.8125c9.414062 11.382812 20.328125 21.480469 32.429688 30h-70.242188v30h330v-30h-70.242188c12.101563-8.519531 23.015626-18.617188 32.429688-30h98.8125zm0 0"/><path d="m256 391c57.898438 0 105-47.101562 105-105s-47.101562-105-105-105-105 47.101562-105 105 47.101562 105 105 105zm0-180c41.355469 0 75 33.644531 75 75s-33.644531 75-75 75-75-33.644531-75-75 33.644531-75 75-75zm0 0"/></svg>