<svg height="512pt" viewBox="0 0 512 512" width="512pt" xmlns="http://www.w3.org/2000/svg"><path d="m176.296875 288.664062 42.425781 42.425782-84.855468 84.851562 21.214843 21.214844 84.851563-84.851562 42.425781 42.425781 84.855469-84.851563-106.066406-106.066406zm106.0625 63.640626-63.636719-63.640626 42.425782-42.425781 63.636718 63.640625zm0 0"/><path d="m271 422h90v30h-90zm0 0"/><path d="m512 30h-91v-30h-30v30h-270v-30h-30v30h-91v482h512c0-9.132812 0-468.636719 0-482zm-30 30v61h-61v-61zm-91 0v61h-270v-61zm-361 0h61v61h-61zm0 422v-331h61v30h30v-30h270v30h30v-30h61v331zm0 0"/></svg>