<svg height="512pt" viewBox="0 -35 512 511" width="512pt" xmlns="http://www.w3.org/2000/svg"><path d="m115.449219.5-115.449219 134.929688 53.121094 85.835937c-13.625 17.582031-12.460938 43.03125 3.796875 59.289063 8.140625 8.140624 18.648437 12.496093 29.332031 13.078124.582031 10.679688 4.9375 21.191407 13.078125 29.332032 7.910156 7.910156 18.246094 12.503906 29.332031 13.101562.589844 10.671875 4.945313 21.171875 13.078125 29.308594 7.910157 7.910156 18.246094 12.503906 29.332031 13.101562.585938 10.671876 4.941407 21.171876 13.078126 29.308594 13.871093 13.867188 34.507812 16.722656 51.1875 8.777344l12.425781 12.425781c17.539062 17.539063 46.078125 17.539063 63.613281 0 8.136719-8.132812 12.496094-18.632812 13.085938-29.300781 11.082031-.601562 21.417968-5.203125 29.324218-13.109375 7.910156-7.910156 12.511719-18.242187 13.109375-29.324219 10.671875-.589844 21.167969-4.953125 29.300781-13.085937 8.132813-8.132813 12.488282-18.632813 13.078126-29.304688 11.085937-.597656 21.421874-5.195312 29.332031-13.105469 14.621093-14.617187 17.054687-36.878906 7.300781-54.042968l66.09375-114.632813-129.820312-132.582031c-4.042969 0-266.433594 0-266.730469 0zm-37.324219 237.644531 21.203125-21.203125c5.859375-5.863281 15.34375-5.863281 21.207031 0 5.859375 5.859375 5.859375 15.34375 0 21.203125l-21.207031 21.203125c-5.84375 5.847656-15.359375 5.847656-21.203125 0-5.863281-5.859375-5.863281-15.339844 0-21.203125zm42.40625 42.410157 21.207031-21.203126c5.84375-5.847656 15.359375-5.847656 21.203125 0 5.847656 5.84375 5.847656 15.359376 0 21.203126l-21.203125 21.207031c-5.863281 5.859375-15.34375 5.859375-21.207031 0-5.84375-5.847657-5.84375-15.359375 0-21.207031zm42.410156 63.613281c-5.84375-5.84375-5.84375-15.355469 0-21.203125l21.207032-21.203125c5.859374-5.859375 15.34375-5.863281 21.203124 0 5.859376 5.855469 5.863282 15.34375 0 21.203125l-21.203124 21.203125c-5.859376 5.863281-15.34375 5.863281-21.207032 0zm42.410156 42.414062c-5.859374-5.863281-5.859374-15.347656 0-21.207031l21.207032-21.203125c5.84375-5.847656 15.359375-5.847656 21.203125 0 5.863281 5.859375 5.863281 15.34375 0 21.203125l-21.203125 21.207031c-5.847656 5.84375-15.359375 5.84375-21.207032 0zm84.820313 21.203125c-5.84375 5.84375-15.355469 5.847656-21.203125 0l-10.605469-10.601562 10.605469-10.605469c3.667969-3.667969 6.621094-7.859375 8.796875-12.40625l12.40625 12.40625c5.859375 5.863281 5.863281 15.34375 0 21.207031zm127.230469-127.230468c-5.859375 5.859374-15.34375 5.863281-21.207032 0l-53.011718-53.011719-21.203125 21.203125 53.011719 53.015625c5.847656 5.84375 5.847656 15.359375 0 21.203125-5.84375 5.847656-15.359376 5.847656-21.207032 0l-53.011718-53.011719-21.203126 21.203125 53.011719 53.015625c5.859375 5.859375 5.859375 15.34375 0 21.203125s-15.34375 5.859375-21.203125 0l-42.410156-42.410156c-8.132812-8.132813-18.636719-12.488282-29.308594-13.078125-.597656-11.082031-5.191406-21.421875-13.101562-29.332031-7.910156-7.90625-18.246094-12.503907-29.332032-13.101563-.589843-10.671875-4.945312-21.171875-13.078124-29.308594-8.140626-8.136719-18.648438-12.496093-29.328126-13.078125-.585937-10.679687-4.941406-21.191406-13.082031-29.332031-17.578125-17.578125-46.03125-17.578125-63.613281 0l-3.421875 3.421875-37.671875-60.875 92.226562-107.792969h114.113282l-112.234375 112.234375 10.601562 10.601563c29.296875 29.300781 76.722657 29.304687 106.023438 0l31.808593-31.804688 137.832032 137.832031c5.847656 5.84375 5.847656 15.355469 0 21.203126zm7.378906-56.234376-92.226562-92.230468c15.535156-2.195313 30.511718-9.25 42.4375-21.175782l-21.203126-21.203124c-17.539062 17.539062-46.078124 17.539062-63.617187 0l-10.601563-10.601563-53.011718 53.011719c-14.09375 14.09375-34.824219 16.644531-51.210938 8.800781l110.433594-110.433594h83.789062l105.089844 107.324219zm0 0"/></svg>