<svg height="512pt" viewBox="0 0 512 512" width="512pt" xmlns="http://www.w3.org/2000/svg"><path d="m236.832031 136.621094 42.410157 42.410156-84.824219 84.828125 21.207031 21.203125 84.824219-84.824219 42.410156 42.414063 84.828125-84.824219-106.03125-106.035156zm106.027344 63.617187-63.617187-63.621093 42.414062-42.410157 63.617188 63.617188zm0 0"/><path d="m331.503906 269.910156h89.972656v29.992188h-89.972656zm0 0"/><path d="m316.507812 0c-107.484374 0-194.933593 87.449219-194.933593 194.9375 0 48.355469 17.707031 92.652344 46.96875 126.761719l-27.484375 27.480469-21.230469-21.234376-119.828125 120.433594 63.621094 63.621094 119.824218-120.433594-21.179687-21.179687 27.480469-27.484375c34.109375 29.265625 78.40625 46.96875 126.761718 46.96875 107.488282 0 194.9375-87.445313 194.9375-194.933594s-87.449218-194.9375-194.9375-194.9375zm-252.941406 469.53125-21.207031-21.203125 77.519531-77.914063 21.207032 21.207032zm252.941406-109.648438c-90.949218 0-164.945312-73.996093-164.945312-164.945312 0-90.953125 73.996094-164.949219 164.945312-164.949219 90.953126 0 164.949219 73.996094 164.949219 164.949219 0 90.949219-73.996093 164.945312-164.949219 164.945312zm0 0"/></svg>