<svg height="512pt" viewBox="0 -69 512 512" width="512pt" xmlns="http://www.w3.org/2000/svg"><path d="m467 150c8.269531 0 15 6.730469 15 15h30c0-19.554688-12.539062-36.226562-30-42.421875v-32.578125h-30v32.578125c-17.460938 6.195313-30 22.867187-30 42.421875 0 24.8125 20.1875 45 45 45 8.269531 0 15 6.730469 15 15s-6.730469 15-15 15-15-6.730469-15-15h-30c0 19.554688 12.539062 36.226562 30 42.421875v32.578125h30v-32.578125c17.460938-6.195313 30-22.867187 30-42.421875 0-24.8125-20.1875-45-45-45-8.269531 0-15-6.730469-15-15s6.730469-15 15-15zm0 0"/><path d="m64.539062 241.75c-2.988281 9.042969-4.539062 18.558594-4.539062 28.25 0 49.625 40.375 90 90 90h30c44.140625 0 80.957031-31.941406 88.558594-73.921875 20.875 7.84375 25.90625 10.453125 93.441406 38.867187v35.054688h30v-360h-30v35.054688c-39.65625 13.675781-153.574219 80.976562-332 84.773437v-29.828125h-30v180h30v-29.828125c11.511719.246094 23.027344.773437 34.539062 1.578125zm115.460938 88.25h-30c-33.085938 0-60-26.914062-60-60 0-8.863281 1.929688-17.507812 5.628906-25.410156 48.957032 5.550781 97.4375 16.09375 144.074219 31.347656-2.992187 30.308594-28.625 54.0625-59.703125 54.0625zm182-262.375v224.75c-42.03125-16.90625-81.941406-37.773438-152-56.546875v-111.652344c70.09375-18.785156 109.519531-39.464843 152-56.550781zm-182 63.929688v96.890624c-49.234375-11.0625-99.6875-17.25-150-18.277343v-60.335938c50.3125-1.027343 100.769531-7.214843 150-18.277343zm0 0"/><path d="m490.292969 1.570312 13.417969 26.832032-60 29.996094-13.414063-26.832032zm0 0"/><path d="m490.296875 373.433594-59.996094-30 13.414063-26.832032 60 30zm0 0"/></svg>