<svg height="512pt" viewBox="-31 0 512 512" width="512pt" xmlns="http://www.w3.org/2000/svg"><path d="m390 60c0-33.085938-26.914062-60-60-60h-15c-38.152344 0-71.613281 20.453125-90 50.972656-18.386719-30.519531-51.847656-50.972656-90-50.972656h-15c-33.085938 0-60 26.914062-60 60 0 10.925781 2.949219 21.167969 8.070312 30h-68.070312v120h30v302h390c0-12.503906 0-290.863281 0-302h30v-120h-68.070312c5.121093-8.832031 8.070312-19.074219 8.070312-30zm-75-30h15c16.542969 0 30 13.457031 30 30s-13.457031 30-30 30h-88.492188c6.96875-34.191406 37.273438-60 73.492188-60zm-75 361v91h-30v-91zm-180-30v-30h330v30zm180-60h-30v-181h30zm-150-241c0-16.542969 13.457031-30 30-30h15c36.21875 0 66.523438 25.808594 73.492188 60h-88.492188c-16.542969 0-30-13.457031-30-30zm-60 60h150v60h-150zm30 90h120v91h-120zm0 181h120v91h-120zm330 91h-120v-91h120zm0-181h-120v-91h120zm30-121h-150v-60h150zm0 0"/></svg>