<svg height="512pt" viewBox="-61 0 512 512" width="512pt" xmlns="http://www.w3.org/2000/svg"><path d="m231.214844 242h-81.214844v-30h90v-212h-210v212h90v30c-16.246094 0-57.457031 0-75 0-24.8125 0-45 20.1875-45 45 0 11.515625 4.355469 22.03125 11.496094 30-7.140625 7.96875-11.496094 18.484375-11.496094 30s4.355469 22.03125 11.496094 30c-7.140625 7.96875-11.496094 18.484375-11.496094 30 0 15.914062 8.3125 29.914062 20.8125 37.917969-3.691406 6.527343-5.8125 14.0625-5.8125 22.082031 0 24.8125 20.1875 45 45 45h171.214844l60-60h98.785156v-150h-98.785156zm-171.214844-212h150v152h-150zm-15 392c-8.269531 0-15-6.730469-15-15s6.730469-15 15-15h30c8.269531 0 15 6.730469 15 15s-6.730469 15-15 15c-10.492188 0-19.507812 0-30 0zm-15-75c0-8.269531 6.730469-15 15-15h45v32.578125c-4.695312-1.664063-9.742188-2.578125-15-2.578125h-30c-8.269531 0-15-6.730469-15-15zm15-75h45v30h-45c-8.269531 0-15-6.730469-15-15s6.730469-15 15-15zm15 210c-8.269531 0-15-6.730469-15-15s6.730469-15 15-15h15c8.269531 0 15 6.730469 15 15s-6.730469 15-15 15zm300-60h-81.214844l-60 60h-101.363281c1.664063-4.695312 2.578125-9.742188 2.578125-15 0-11.515625-4.355469-22.03125-11.496094-30 4.136719-4.617188 7.335938-10.089844 9.292969-16.113281 17.109375-2.957031 32.242187-11.714844 43.304687-24.1875 10.882813 15.296875 28.738282 25.300781 48.898438 25.300781h30v-30h-30c-16.542969 0-30-13.457031-30-30v-45h-30v30c0 19.554688-12.539062 36.238281-30 42.429688v-117.429688h98.785156l60 60h81.214844zm0 0"/><path d="m120 114.785156-19.394531-19.390625-21.210938 21.210938 40.605469 40.609375 70.605469-70.609375-21.210938-21.210938zm0 0"/></svg>