<svg height="512pt" viewBox="-73 0 512 512" width="512pt" xmlns="http://www.w3.org/2000/svg"><path d="m321.210938 136c-8.019532 0-15.550782 2.121094-22.082032 5.8125-8-12.5-22.003906-20.8125-37.917968-20.8125-11.515626 0-22.03125 4.355469-30 11.496094-7.96875-7.144532-18.480469-11.496094-30-11.496094-5.257813 0-10.304688.914062-15 2.578125v-78.585937c0-24.808594-20.1875-44.992188-45.003907-44.992188-24.8125 0-44.996093 20.183594-44.996093 44.992188v186.503906c-27.703126-13.425782-62.140626-8.914063-85.453126 13.746094l-10.757812 10.457031 156.210938 160.679687v95.621094h150v-99.785156l60-60v-171.214844c0-24.8125-20.1875-45-45-45zm-60 15c8.273437 0 15 6.730469 15 15v30c0 8.269531-6.726563 15-15 15-8.269532 0-15-6.730469-15-15v-30c0-8.269531 6.730468-15 15-15zm-60 0c8.273437 0 15 6.730469 15 15v30c0 8.269531-6.726563 15-15 15-8.269532 0-15-6.730469-15-15v-30c0-8.269531 6.730468-15 15-15zm75 248.785156v82.214844h-90v-77.800781l-142.007813-146.070313c16.894531-7.816406 37.617187-4.691406 51.324219 9.269532.101562.101562 32.101562 33.5 32.195312 33.601562h43.488282c24.8125 0 45 20.1875 45 45v15h30v-15c0-41.355469-33.644532-75-75-75h-30.792969c-7.683594-7.984375-7.414063-8.035156-14.207031-15.09375v-210.914062c0-8.265626 6.726562-14.992188 14.996093-14.992188 8.273438 0 15.003907 6.726562 15.003907 14.992188v151.007812c0 24.8125 20.1875 45 45 45 11.519531 0 22.03125-4.355469 30-11.496094 7.96875 7.144532 18.484374 11.496094 30 11.496094 11.519531 0 22.03125-4.355469 30-11.496094 7.96875 7.144532 18.484374 11.496094 30 11.496094 5.257812 0 10.304687-.914062 15-2.578125v101.363281zm60-203.785156c0 8.269531-6.726563 15-15 15-8.269532 0-15-6.730469-15-15v-15c0-8.269531 6.730468-15 15-15 8.273437 0 15 6.730469 15 15zm0 0"/></svg>