<svg height="512pt" viewBox="-73 0 512 512" width="512pt" xmlns="http://www.w3.org/2000/svg"><path d="m321.210938 60c-5.855469 0-11.449219 1.136719-16.585938 3.179688-5.203125-19.09375-22.691406-33.179688-43.414062-33.179688-5.855469 0-11.449219 1.136719-16.585938 3.179688-5.203125-19.09375-22.691406-33.179688-43.414062-33.179688-20.722657 0-38.207032 14.085938-43.414063 33.183594-5.136719-2.046875-10.730469-3.183594-16.589844-3.183594-24.8125 0-44.996093 20.183594-44.996093 44.992188v186.503906c-27.703126-13.425782-62.140626-8.914063-85.453126 13.746094l-10.757812 10.457031 156.210938 160.679687v65.621094h150v-69.785156l60-60v-277.214844c0-24.8125-20.1875-45-45-45zm15 309.785156-60 60v52.214844h-90v-47.800781l-142.007813-146.070313c16.894531-7.816406 37.617187-4.691406 51.324219 9.269532.101562.101562 32.101562 33.5 32.195312 33.601562h43.488282c24.8125 0 45 20.1875 45 45v15h30v-15c0-41.355469-33.644532-75-75-75h-30.792969c-7.683594-7.984375-7.414063-8.035156-14.207031-15.09375v-210.914062c0-8.265626 6.726562-14.992188 14.996093-14.992188 8.273438 0 15.003907 6.726562 15.003907 14.992188v151.007812h30c0-7.972656 0-173.027344 0-181 0-8.269531 6.730468-15 15-15 8.273437 0 15 6.730469 15 15v181h30c0-17.171875 0-136.015625 0-151 0-8.269531 6.730468-15 15-15 8.273437 0 15 6.730469 15 15v151h30c0-13.230469 0-99.519531 0-121 0-8.269531 6.730468-15 15-15 8.273437 0 15 6.730469 15 15zm0 0"/></svg>