<svg height="512pt" viewBox="-23 0 512 512.001" width="512pt" xmlns="http://www.w3.org/2000/svg"><path d="m328.824219 137.703125c-52.738281-52.738281-138.375-52.742187-191.117188 0-52.742187 52.742187-52.746093 138.375 0 191.117187 52.738281 52.742188 138.375 52.746094 191.117188 0 52.738281-52.738281 52.746093-138.371093 0-191.117187zm-21.234375 169.882813c-41.003906 41.003906-107.644532 41.007812-148.648438 0-40.984375-40.980469-40.984375-107.664063 0-148.644532 41.003906-41.003906 107.640625-41.007812 148.648438 0 40.980468 40.980469 40.980468 107.664063 0 148.644532zm0 0"/><path d="m365.25 0-78.347656 45.492188c-50.605469-14.375-107.855469-8.328126-156.132813 21.570312l-46.152343-46.152344-63.707032 63.707032 46.1875 46.183593c-29.054687 47.121094-36.226562 104.003907-21.519531 155.949219l-45.578125 78.496094 101.277344 101.28125 78.351562-45.496094c65.210938 18.523438 139.125 2.800781 191.664063-49.738281 1.488281-1.488281 2.9375-3.003907 4.371093-4.53125v32.910156l-30.03125 30.03125v82.296875h90.09375v-82.296875l-30.03125-30.03125v-74.722656c24.542969-46.015625 28.582032-98.695313 15.335938-145.320313l45.496094-78.351562zm40.449219 481.96875h-30.03125v-39.828125l15.015625-15.015625 15.015625 15.015625zm-342.316407-397.351562 21.234376-21.238282 21.636718 21.640625c-3.78125 3.25-7.457031 6.652344-11.019531 10.214844-3.570313 3.570313-6.976563 7.25-10.214844 11.019531zm42.796876 344.335937-68.605469-68.605469 22.027343-37.9375c9.03125 17.621094 20.898438 34.148438 35.632813 48.882813 14.558594 14.554687 31.015625 26.519531 48.800781 35.679687zm243.878906-78.894531c-64.546875 64.546875-169.03125 64.558594-233.589844 0-64.398438-64.402344-64.398438-169.191406 0-233.589844 64.550781-64.546875 169.03125-64.558594 233.589844 0 64.550781 64.550781 64.554687 169.03125 0 233.589844zm21.234375-254.824219c-14.554688-14.558594-31.011719-26.519531-48.800781-35.679687l37.859374-21.984376 68.601563 68.605469-21.980469 37.859375c-9.160156-17.789062-21.121094-34.246094-35.679687-48.800781zm0 0"/><path d="m275.734375 169.558594-63.707031 63.703125 63.707031 63.707031 21.234375-21.234375-42.46875-42.472656 42.46875-42.46875zm0 0"/></svg>