<svg height="512pt" viewBox="0 -16 512 512" width="512pt" xmlns="http://www.w3.org/2000/svg"><path d="m512 75c0-24.8125-20.1875-45-45-45s-45 20.1875-45 45c0 6.914062 1.570312 13.46875 4.371094 19.328125l-22.824219 22.597656c-14.050781-16.773437-35.039063-26.925781-57.546875-26.925781-13.996094 0-27.363281 3.789062-38.976562 10.882812l-16.34375-27.238281c6.441406-7.789062 10.320312-17.773437 10.320312-28.644531 0-24.8125-20.1875-45-45-45s-45 20.1875-45 45c0 10.871094 3.878906 20.855469 10.320312 28.644531l-16.34375 27.242188c-11.613281-7.097657-24.980468-10.886719-38.976562-10.886719-22.34375 0-43.722656 10.140625-57.984375 26.488281l-22.386719-22.160156c2.800782-5.859375 4.371094-12.414063 4.371094-19.328125 0-24.8125-20.1875-45-45-45s-45 20.1875-45 45c0 23.742188 18.484375 43.234375 41.816406 44.875l57.914063 136.816406c-5.867188 1.195313-11.734375 2.449219-17.570313 3.777344-8.0625-12.515625-21.871094-20.46875-37.160156-20.46875-24.8125 0-45 20.1875-45 45 0 10.6875 3.867188 20.699219 10.878906 28.703125-7.242187 25.792969-7.242187 66.800781 0 92.59375-7.011718 8.003906-10.878906 18.015625-10.878906 28.703125 0 24.8125 20.1875 45 45 45 15.289062 0 29.097656-7.953125 37.160156-20.46875 114 25.917969 233.679688 25.917969 347.679688 0 8.0625 12.515625 21.871094 20.46875 37.160156 20.46875 24.8125 0 45-20.1875 45-45 0-10.683594-3.867188-20.699219-10.878906-28.703125 7.242187-25.792969 7.242187-66.800781 0-92.59375 7.011718-8.003906 10.878906-18.019531 10.878906-28.703125 0-24.8125-20.1875-45-45-45-15.304688 0-29.128906 7.96875-37.1875 20.507812-5.410156-1.199218-11.234375-2.414062-17.601562-3.675781l57.972656-136.957031c23.332031-1.640625 41.816406-21.132812 41.816406-44.875zm-190.082031 255h-131.835938c-8.640625 0-17.207031.980469-25.539062 2.847656l-13.902344-32.847656h210.71875l-13.898437 32.835938c-8.289063-1.863282-16.84375-2.835938-25.542969-2.835938zm52.140625-60h-236.117188l-59.507812-140.582031 90.59375 89.6875 78.003906-130.003907c2.902344.585938 5.898438.898438 8.96875.898438s6.066406-.3125 8.96875-.898438l78.003906 130.003907 90.59375-89.6875zm92.941406-210c8.269531 0 15 6.730469 15 15s-6.730469 15-15 15-15-6.730469-15-15 6.730469-15 15-15zm-121 60c14.371094 0 27.722656 6.894531 36.109375 18.144531l-33.082031 32.75-26.5625-44.273437c7.003906-4.316406 15.078125-6.621094 23.535156-6.621094zm-90-90c8.269531 0 15 6.730469 15 15s-6.730469 15-15 15-15-6.730469-15-15 6.730469-15 15-15zm-90 90c8.457031 0 16.53125 2.304688 23.535156 6.621094l-26.5625 44.273437-33.589844-33.253906c8.566407-10.828125 22.242188-17.640625 36.617188-17.640625zm-136-45c0-8.269531 6.730469-15 15-15s15 6.730469 15 15-6.730469 15-15 15-15-6.730469-15-15zm404.867188 217.476562 14.5 3.546876 3.617187-14.484376c1.433594-5.742187 6.324219-11.539062 14.015625-11.539062 8.269531 0 15 6.730469 15 15 0 6.28125-4.292969 10.171875-6.851562 11.929688l-10.449219 7.1875 5.351562 11.5c8.6875 18.664062 8.6875 70.097656 0 88.765624l-5.351562 11.5 10.449219 7.1875c2.558593 1.757813 6.851562 5.648438 6.851562 11.929688 0 8.269531-6.730469 15-15 15-7.691406 0-12.578125-5.796875-14.015625-11.542969l-3.617187-14.480469-14.5 3.542969c-117.015626 28.609375-240.71875 28.609375-357.738282 0l-14.496094-3.542969-3.617187 14.480469c-1.433594 5.746094-6.324219 11.542969-14.015625 11.542969-8.269531 0-15-6.730469-15-15 0-6.28125 4.292969-10.171875 6.851562-11.929688l10.449219-7.1875-5.351562-11.5c-8.6875-18.664062-8.6875-70.097656 0-88.765624l5.351562-11.5-10.449219-7.1875c-2.558593-1.757813-6.851562-5.648438-6.851562-11.929688 0-8.269531 6.730469-15 15-15 7.691406 0 12.582031 5.796875 14.015625 11.539062l3.617187 14.484376 14.5-3.546876c11.394532-2.785156 22.988282-5.316406 34.542969-7.570312l24.613281 58.152344c-17.546874 8.957031-32.808593 22.175781-43.769531 38.621094l24.960938 16.640624c15.757812-23.636718 43.578125-38.320312 72.601562-38.320312h131.835938c28.839843 0 55.605469 14.324219 71.601562 38.320312l24.960938-16.640624c-11.007813-16.511719-25.804688-29.617188-42.816407-38.503907l24.597657-58.113281c13.722656 2.644531 24.835937 5.027344 34.605469 7.414062zm0 0"/></svg>