<svg height="512pt" viewBox="-61 0 512 512" width="512pt" xmlns="http://www.w3.org/2000/svg"><path d="m221.179688 242.53125 84.78125-84.785156-105.976563-105.976563-84.785156 84.78125 42.394531 42.394531-84.785156 84.78125 21.195312 21.195313 84.785156-84.78125zm-21.195313-148.371094 63.585937 63.585938-42.390624 42.394531-63.585938-63.589844zm0 0"/><path d="m209.828125 269.777344h89.925781v29.976562h-89.925781zm0 0"/><path d="m350.636719 311.859375.164062-.210937c25.433594-33.914063 38.878907-74.304688 38.878907-116.808594 0-107.433594-87.402344-194.839844-194.839844-194.839844-107.433594 0-194.839844 87.40625-194.839844 194.839844 0 42.503906 13.445312 82.894531 38.882812 116.808594l155.957032 200.351562zm-320.660157-117.019531c0-90.90625 73.957032-164.863282 164.863282-164.863282s164.867187 73.957032 164.867187 164.863282c0 35.921875-11.34375 70.050781-32.804687 98.714844l-132.0625 169.648437-132.058594-169.648437c-21.464844-28.664063-32.804688-62.792969-32.804688-98.714844zm0 0"/></svg>