<svg height="511pt" viewBox="1 0 511.999 511" width="511pt" xmlns="http://www.w3.org/2000/svg"><path d="m300.042969 196.460938c0-17.875-3.5-34.941407-9.839844-50.570313l39.9375-30.492187-18.203125-23.839844-36.238281 27.671875c-21.71875-31.015625-56.128907-52.519531-95.632813-56.90625v-31.832031h29.992188v-29.992188h-89.980469v29.992188h29.996094v31.832031c-39.503907 4.386719-73.914063 25.890625-95.632813 56.90625l-36.238281-27.671875-18.203125 23.839844 39.933594 30.492187c-6.335938 15.628906-9.835938 32.695313-9.835938 50.570313 0 32.066406 11.246094 61.550781 29.992188 84.730468v231.203125h451.910156v-270.945312h-219.675781c4.992187-14.078125 7.71875-29.222657 7.71875-44.988281zm-134.972657-104.980469c57.886719 0 104.980469 47.09375 104.980469 104.980469 0 57.882812-47.09375 104.976562-104.980469 104.976562-57.886718 0-104.980468-47.09375-104.980468-104.976562 0-57.886719 47.09375-104.980469 104.980468-104.980469zm-74.984374 363.507812c12.761718 4.523438 22.886718 14.652344 27.414062 27.414063h-27.414062zm364.503906 27.414063c4.527344-12.761719 14.65625-22.890625 27.417968-27.414063v27.414063zm27.417968-183.542969c-12.761718-4.527344-22.890624-14.652344-27.417968-27.414063h27.417968zm-58.480468-27.414063c5.976562 29.335938 29.140625 52.5 58.480468 58.476563v94c-29.339843 5.980469-52.5 29.144531-58.480468 58.480469h-274.964844c-5.976562-29.335938-29.140625-52.5-58.476562-58.480469v-115.289063c21.460937 14.390626 47.257812 22.800782 74.984374 22.800782 46.699219 0 87.929688-23.84375 112.171876-59.988282zm0 0"/><path d="m210.0625 181.460938h-29.996094v-59.984376h-29.992187v89.980469h59.988281zm0 0"/><path d="m210.0625 376.421875c0 20.027344 7.757812 38.992187 21.839844 53.402344 14.238281 14.5625 33.109375 22.582031 53.144531 22.582031 20.03125 0 38.90625-8.019531 53.140625-22.582031 14.085938-14.410157 21.84375-33.375 21.84375-53.402344 0-41.34375-33.636719-74.984375-74.984375-74.984375s-74.984375 33.640625-74.984375 74.984375zm74.984375-44.988281c24.808594 0 44.988281 20.179687 44.988281 44.988281 0 24.929687-20.601562 45.992187-44.988281 45.992187-24.390625 0-44.992187-21.0625-44.992187-45.992187 0-24.808594 20.183593-44.988281 44.992187-44.988281zm0 0"/><path d="m165.070312 397.632812-21.210937-21.207031 21.210937-21.207031 21.207032 21.207031zm0 0"/><path d="m407.019531 355.210938 21.210938 21.207031-21.210938 21.207031-21.207031-21.207031zm0 0"/></svg>