<svg height="512pt" viewBox="0 0 512 512" width="512pt" xmlns="http://www.w3.org/2000/svg"><path d="m271 331c33.085938 0 60-26.914062 60-60s-26.914062-60-60-60-60 26.914062-60 60 26.914062 60 60 60zm0-90c16.542969 0 30 13.457031 30 30s-13.457031 30-30 30-30-13.457031-30-30 13.457031-30 30-30zm0 0"/><path d="m481 271c0-33.085938-26.914062-60-60-60s-60 26.914062-60 60 26.914062 60 60 60 60-26.914062 60-60zm-60 30c-16.542969 0-30-13.457031-30-30s13.457031-30 30-30 30 13.457031 30 30-13.457031 30-30 30zm0 0"/><path d="m271 331h-60v-150h-30v-60h60v-121h-150v121h60v60h-30v38.070312c-8.832031-5.121093-19.074219-8.070312-30-8.070312-33.085938 0-60 26.914062-60 60s26.914062 60 60 60c10.925781 0 21.167969-2.949219 30-8.070312v8.070312h-121v181h512v-181h-91c-21.886719 0-130.457031 0-150 0zm-150-301h90v61h-90zm-30 271c-16.542969 0-30-13.457031-30-30s13.457031-30 30-30 30 13.457031 30 30-13.457031 30-30 30zm-61 181v-121h91v60h60v61zm181 0v-91h-60v-180h30v150h150v121zm271 0h-121v-121h121zm0 0"/></svg>