<svg height="512pt" viewBox="0 0 512 512" width="512pt" xmlns="http://www.w3.org/2000/svg"><path d="m166 181h-166v211h121v120h391v-270h-272.484375c-6.769531-33.886719-36.664063-61-73.515625-61zm-136 181v-151h136c24.394531 0 45 21.066406 45 46v120.039062c-12.542969-9.4375-28.128906-15.039062-45-15.039062-16.847656 0-122.570312 0-136 0zm121 120v-90h15c24.8125 0 45 20.1875 45 45s-20.1875 45-45 45zm331 0h-256.039062c9.4375-12.542969 15.039062-28.128906 15.039062-45v-165h241zm0 0"/><path d="m271 302h181v30h-181zm0 0"/><path d="m271 362h181v30h-181zm0 0"/><path d="m271 422h181v30h-181zm0 0"/><path d="m391 30h30v-30c-17.921875 0-136.148438 0-150 0v30h90v31h-258.488281l-61 30h-41.511719v30h41.511719l61 30h409.488281v-90h-121zm-312.011719 76 30.5-15h251.511719v30h-251.511719zm403.011719-15v30h-91v-30zm0 0"/></svg>