<svg height="512pt" viewBox="0 0 512 512" width="512pt" xmlns="http://www.w3.org/2000/svg"><path d="m60 271h30v-30h30v-30h-60zm0 0"/><path d="m90 391h-30v60h60v-30h-30zm0 0"/><path d="m467 211h-15v-60h-30v-91h-120v-60h-272v151h-30v361h452v-121h15c24.8125 0 45-20.1875 45-45v-90c0-24.8125-20.1875-45-45-45zm0 30c8.269531 0 15 6.730469 15 15s-6.730469 15-15 15h-15v-30zm-75-90h-30v-61h30zm-60-61v61h-30v-61zm-60-32.578125c-12.765625-4.527344-22.894531-14.65625-27.421875-27.421875h27.421875zm-184.578125-27.421875c-4.527344 12.765625-14.65625 22.894531-27.421875 27.421875v-27.421875zm-27.421875 58.492188c29.34375-5.980469 52.511719-29.148438 58.492188-58.492188h95.019531c5.976562 29.34375 29.144531 52.511719 58.488281 58.492188v62.507812h-212zm362 393.507812h-392v-301h392v90c-33.085938 0-60 26.914062-60 60s26.914062 60 60 60zm45-121h-45c-16.542969 0-30-13.457031-30-30s13.457031-30 30-30h45c5.257812 0 10.304688-.914062 15-2.578125v47.578125c0 8.269531-6.730469 15-15 15zm0 0"/><path d="m60 301h30v60h-30zm0 0"/><path d="m150 421h62v30h-62zm0 0"/><path d="m242 421h60v30h-60zm0 0"/><path d="m332 421h60v30h-60zm0 0"/><path d="m332 211h60v30h-60zm0 0"/><path d="m242 211h60v30h-60zm0 0"/><path d="m150 211h62v30h-62zm0 0"/><path d="m165 126.214844-21.210938-21.214844 21.210938-21.210938 21.214844 21.210938zm0 0"/></svg>