<svg height="512pt" viewBox="0 0 512 512" width="512pt" xmlns="http://www.w3.org/2000/svg"><path d="m437 150 15-1.507812c34.191406-6.96875 60-37.273438 60-73.492188 0-41.355469-33.644531-75-75-75h-377v30h15c24.8125 0 45 20.1875 45 45s-20.1875 45-45 45l-15 1.507812c-34.191406 6.96875-60 37.273438-60 73.492188s25.808594 66.523438 60 73.492188l15 1.507812c24.8125 0 45 20.1875 45 45s-20.1875 45-45 45h-15v30h219.785156l-8.785156 8.785156v113.214844h90v-113.214844l-8.785156-8.785156h84.785156c41.355469 0 75-33.644531 75-75 0-36.21875-25.808594-66.523438-60-73.492188l-15-1.507812c-24.933594 0-46-20.605469-46-45s21.066406-45 46-45zm-106 332h-30v-70.785156l15-15 15 15zm-196.039062-452h302.039062c24.8125 0 45 20.1875 45 45s-20.1875 45-45 45h-302.039062c9.4375-12.542969 15.039062-28.128906 15.039062-45s-5.601562-32.457031-15.039062-45zm347.039062 285c0 24.8125-20.1875 45-45 45h-106v-30h91v-30h-211v30h90v30h-166.039062c9.4375-12.542969 15.039062-28.128906 15.039062-45s-5.601562-32.457031-15.039062-45h302.039062c24.8125 0 45 20.1875 45 45zm-407-75c-24.8125 0-45-20.1875-45-45s20.1875-45.011719 45-45.011719h301.351562c-9.957031 12.949219-15.351562 28.59375-15.351562 45.011719s5.394531 32.054688 15.351562 45zm0 0"/><path d="m90 180h211v30h-211zm0 0"/><path d="m211 60h211v30h-211zm0 0"/></svg>