<svg height="512pt" viewBox="0 0 512 512" width="512pt" xmlns="http://www.w3.org/2000/svg"><path d="m155.082031 286.15625 84.851563-84.851562 42.425781 42.425781 84.855469-84.851563-106.066406-106.066406-84.855469 84.851562 42.425781 42.425782-84.851562 84.851562zm106.066407-190.917969 63.636718 63.640625-42.425781 42.425782-63.640625-63.640626zm0 0"/><path d="m271 271h90v30h-90zm0 0"/><path d="m185.152344 482h-64.152344v30h270v-30h-64.152344l-20.109375-61h205.261719v-421h-512v421h205.261719zm110.109375 0h-78.523438l20.113281-61h38.300782zm186.738281-452v301h-452v-301zm-452 331h452v30h-452zm0 0"/></svg>