<svg height="512pt" viewBox="-91 0 512 512" width="512pt" xmlns="http://www.w3.org/2000/svg"><path d="m191.359375 303.730469 84.855469-84.851563-106.066406-106.066406-84.855469 84.851562 42.425781 42.425782-84.851562 84.851562 21.210937 21.214844 84.855469-84.851562zm-21.210937-148.492188 63.636718 63.640625-42.425781 42.425782-63.640625-63.640626zm0 0"/><path d="m180 331h90v30h-90zm0 0"/><path d="m330 0h-330v512h330zm-30 30v30h-270v-30zm-270 361v-301h270v301zm0 91v-61h120v30h30v-30h120v61zm0 0"/></svg>