<svg height="512pt" viewBox="-61 0 512 512" width="512pt" xmlns="http://www.w3.org/2000/svg"><path d="m195 362c-8.269531 0-15-6.730469-15-15h-30c0 19.554688 12.539062 36.226562 30 42.421875v32.578125h30v-32.578125c17.460938-6.195313 30-22.867187 30-42.421875 0-24.8125-20.1875-45-45-45-8.269531 0-15-6.730469-15-15s6.730469-15 15-15 15 6.730469 15 15h30c0-19.554688-12.539062-36.226562-30-42.421875v-32.578125h-30v32.578125c-17.460938 6.195313-30 22.867187-30 42.421875 0 24.8125 20.1875 45 45 45 8.269531 0 15 6.730469 15 15s-6.730469 15-15 15zm0 0"/><path d="m30 400.070312c-17.914062 10.394532-30 29.769532-30 51.929688 0 33.085938 26.914062 60 60 60h270c33.085938 0 60-26.914062 60-60 0-22.160156-12.085938-41.535156-30-51.929688v-98.90625c0-68.546874-30.421875-135.292968-84.691406-180.164062h54.691406v-30h-75.152344c9.792969-17.628906 15.152344-37.828125 15.152344-58.425781v-32.574219h-150v32.574219c0 24.894531 7.8125 49.210937 21.84375 69.105469-68.335938 41.492187-111.84375 117.03125-111.84375 199.484374zm120-370.070312h90v2.574219c0 21.601562-7.804688 42.554687-21.554688 58.425781h-46.890624c-13.75-15.871094-21.554688-36.824219-21.554688-58.425781zm-90 271.164062c0-67.976562 34.648438-131.890624 90-169.085937v48.921875h30v-60h41.390625c66.09375 34.53125 108.609375 104.855469 108.609375 180.164062v90.835938c-16.027344 0-31.09375 6.242188-42.425781 17.574219l21.214843 21.210937c5.664063-5.664062 13.195313-8.785156 21.210938-8.785156 16.542969 0 30 13.457031 30 30s-13.457031 30-30 30h-270c-16.542969 0-30-13.457031-30-30s13.457031-30 30-30c8.015625 0 15.546875 3.121094 21.210938 8.785156l21.214843-21.210937c-11.332031-11.332031-26.398437-17.574219-42.425781-17.574219zm0 0"/></svg>