<svg height="512pt" viewBox="-61 0 512 512" width="512pt" xmlns="http://www.w3.org/2000/svg"><path d="m105 120h-45v150h45c24.8125 0 45-20.1875 45-45 0-11.515625-4.355469-22.03125-11.496094-30 7.144532-7.96875 11.496094-18.484375 11.496094-30 0-24.8125-20.1875-45-45-45zm-15 30h15c8.269531 0 15 6.730469 15 15s-6.730469 15-15 15h-15zm15 90h-15v-30h15c8.269531 0 15 6.730469 15 15s-6.730469 15-15 15zm0 0"/><path d="m180 120h30v150h-30zm0 0"/><path d="m330 225v-60c0-24.8125-20.1875-45-45-45h-45v150h45c24.8125 0 45-20.1875 45-45zm-60-75h15c8.269531 0 15 6.730469 15 15v60c0 8.269531-6.730469 15-15 15h-15zm0 0"/><path d="m240 512v-122h51.214844l98.785156-98.785156v-192.429688l-98.785156-98.785156h-192.429688l-98.785156 98.785156v192.429688l98.785156 98.785156h51.214844v122zm-30-30h-30v-92h30zm-180-203.214844v-167.570312l81.214844-81.214844h167.570312l81.214844 81.214844v167.570312l-81.214844 81.214844h-167.570312zm0 0"/></svg>