<svg height="512pt" viewBox="0 -46 512 512" width="512pt" xmlns="http://www.w3.org/2000/svg"><path d="m282.359375 242.730469 84.855469-84.851563-106.066406-106.066406-84.855469 84.851562 42.425781 42.425782-84.851562 84.855468 21.210937 21.210938 84.855469-84.851562zm-21.210937-148.492188 63.636718 63.640625-42.425781 42.425782-63.640625-63.640626zm0 0"/><path d="m271 270h90v30h-90zm0 0"/><path d="m75 420h362c41.355469 0 75-33.644531 75-75v-15h-30v-330h-452v330h-30v15c0 41.355469 33.644531 75 75 75zm362-30h-362c-19.558594 0-36.238281-12.550781-42.429688-30.011719h446.859376c-6.191407 17.460938-22.871094 30.011719-42.429688 30.011719zm-377-360h392v300h-392zm0 0"/></svg>