<svg height="512pt" viewBox="-16 0 512 512" width="512pt" xmlns="http://www.w3.org/2000/svg"><path d="m480 121v-121h-150v121h60v32.578125c-17.460938 6.195313-30 22.867187-30 42.421875v75h-30v-105c0-74.4375-60.5625-135-135-135s-135 60.5625-135 135v113.785156l-60 60v172.214844h89.996094v-9.039062c3.171875 3.558593 5.304687 5.511718 8.789062 9.039062h192.429688c1.347656-1.976562 38.785156-31.714844 38.785156-88.425781v-62.574219h120v-165c0-19.554688-12.539062-36.226562-30-42.421875v-32.578125zm-285-60c57.898438 0 105 47.101562 105 105v105h-60v-15.492188c18.253906-14.410156 30-37.460937 30-62.71875v-71.789062h-30c-16.542969 0-30-13.457031-30-30h-30c0 16.542969-13.457031 30-30 30h-30v75c0 23.398438 10.878906 45.632812 30 59.980469v15.019531h-60v-105c0-57.898438 47.101562-105 105-105zm7.667969 179.375c-28.742188 4.671875-52.667969-17.425781-52.667969-44.375v-45c17.902344 0 33.996094-7.882812 45-20.355469 11.003906 12.472657 27.097656 20.355469 45 20.355469v41.789062c0 23.664063-16.050781 44.121094-37.332031 47.585938zm-22.667969 29.070312c4.953125 1.007813 10.023438 1.539063 15.140625 1.539063 4.960937 0 9.875-.46875 14.859375-1.472656v31.480469h27.421875c-6.195313 17.457031-22.867187 30.007812-42.421875 30.007812s-36.226562-12.542969-42.421875-30h27.421875zm98.480469 212.554688h-166.960938c-12.199219-14.089844-19.679687-32.199219-21.210937-51.195312 2.585937-22.371094 21.636718-39.804688 44.691406-39.804688 24.8125 0 45 20.1875 45 45h30c0-24.8125 20.1875-45 45-45 23.195312 0 42.097656 16.519531 44.695312 38.742188l.070313-.007813c-1.328125 19.386719-8.855469 37.910156-21.285156 52.265625zm141.519531-151h-120v44.550781c-12.578125-9.21875-28.179688-14.550781-45-14.550781-24.507812 0-46.304688 11.8125-60 30.046875-13.695312-18.234375-35.492188-30.046875-60-30.046875-16.871094 0-32.457031 5.601562-45 15.039062 0-9.375 0-15.039062 0-15.039062h-30c0 81.132812.003906 105.945312.003906 121h-30.003906v-129.785156l51.214844-51.214844h40.292968c6.96875 34.191406 37.273438 60 73.492188 60s66.523438-25.808594 73.492188-60h121.507812v-105c0-8.269531 6.730469-15 15-15s15 6.730469 15 15zm-60-301h90v61h-90zm0 0"/></svg>