<svg height="512pt" viewBox="0 -46 512 512" width="512pt" xmlns="http://www.w3.org/2000/svg"><path d="m95.082031 285.15625 84.851563-84.851562 42.425781 42.425781 84.855469-84.851563-106.066406-106.066406-84.855469 84.851562 42.425781 42.425782-84.851562 84.851562zm106.066407-190.917969 63.636718 63.640625-42.425781 42.425782-63.640625-63.640626zm0 0"/><path d="m211 270h91v30h-91zm0 0"/><path d="m121 420c33.085938 0 60-26.914062 60-60h151c0 33.085938 26.914062 60 60 60s60-26.914062 60-60h60v-169.542969l-66.972656-100.457031h-83.027344v-90h-362v360h61c0 33.085938 26.914062 60 60 60zm0-30c-16.542969 0-30-13.457031-30-30s13.457031-30 30-30 30 13.457031 30 30-13.457031 30-30 30zm271 0c-16.542969 0-30-13.457031-30-30s13.457031-30 30-30 30 13.457031 30 30-13.457031 30-30 30zm76.972656-210h-46.972656v-60h6.972656zm-76.972656-60v90h90v60h-30v30h30v30h-38.070312c-10.394532-17.914062-29.769532-30-51.929688-30-10.925781 0-21.167969 2.949219-30 8.070312v-188.070312zm-362 210v-300h302v300h-159.070312c-10.394532-17.914062-29.769532-30-51.929688-30s-41.535156 12.085938-51.929688 30zm0 0"/></svg>