<svg height="512pt" viewBox="0 0 512 512" width="512pt" xmlns="http://www.w3.org/2000/svg"><path d="m91.960938 195.878906v66.226563l44.980468 44.980469 44.984375-44.980469v-66.226563c18.195313-13.691406 29.984375-35.460937 29.984375-59.933594 0-41.339843-33.628906-74.96875-74.96875-74.96875-41.335937 0-74.96875 33.628907-74.96875 74.96875 0 24.472657 11.792969 46.242188 29.988282 59.933594zm59.976562 53.804688-14.996094 14.992187-14.992187-14.992187v-40.28125c4.847656.988281 9.859375 1.511718 14.992187 1.511718 5.136719 0 10.148438-.523437 14.996094-1.511718zm-14.996094-158.722656c24.804688 0 44.984375 20.179687 44.984375 44.984374 0 24.800782-20.179687 44.980469-44.984375 44.980469-24.800781 0-44.980468-20.179687-44.980468-44.980469 0-24.804687 20.179687-44.984374 44.980468-44.984374zm0 0"/><path d="m241.898438 60.976562h89.964843v29.984376h-89.964843zm0 0"/><path d="m391.835938 87.324219v-87.324219h-391.835938v511.785156h391.835938v-212.417968c12.730468-12.730469 93.351562-93.351563 104.957031-104.953126l-21.203125-21.207031-21.207032 21.207031-21.203124-21.207031 78.820312-78.820312-63.613281-63.613281zm-178.796876 263.617187-31.808593 10.601563 10.601562-31.804688 176.226563-176.226562h3.015625l19.699219 19.695312zm-183.050781 130.859375v-451.8125h331.859375v87.324219l-196.226562 196.226562-21.203125 63.613282-29.304688 29.304687 14.371094 14.367188h-67.511719v29.988281h269.890625v-29.988281h-188.710937l22.472656-22.46875 63.609375-21.203125 132.613281-132.613282v237.261719zm403.191407-266.183593-41.34375 41.34375v-42.410157l20.140624-20.140625zm-21.203126-63.613282-20.140624-20.140625v-2.128906l56.550781-56.550781 21.203125 21.203125zm0 0"/></svg>