<svg height="512pt" viewBox="0 0 512 512" width="512pt" xmlns="http://www.w3.org/2000/svg"><path d="m512 63.675781-63.675781-63.675781-134.570313 134.289062h-84.902344l-228.851562 229.132813 148.578125 148.578125 229.128906-228.851562v-84.902344l43.027344-43.304688v125.21875l-30.019531 30.019532v111.273437h90.054687v-111.273437l-30.019531-30.019532v-155.234375zm-61.25 327.761719h-30.015625v-68.828125l15.007813-15.007813 15.007812 15.007813zm-2.425781-348.984375 21.226562 21.222656-22.226562 22.226563-21.226563-21.226563zm-100.632813 216.171875-78.640625-15.675781-15.675781-78.640625h60.378906l33.9375 33.9375zm-239.972656 39.53125 21.222656-21.226562 42.449219 42.453124 10.613281-10.613281c5.851563-5.851562 15.375-5.851562 21.226563 0 5.851562 5.851563 5.851562 15.375 0 21.226563l-10.613281 10.613281 42.453124 42.449219-21.226562 21.222656-42.453125-42.449219-10.609375 10.613281c-5.867188 5.863282-15.359375 5.867188-21.226562 0-5.863282-5.863281-5.867188-15.359374 0-21.226562l10.613281-10.609375zm125.53125 40.632812c7.972656-16.734374 5.042969-37.410156-8.792969-51.246093-13.835937-13.835938-34.511719-16.765625-51.246093-8.792969l-23.042969-23.046875 75.683593-75.683594 17.6875 88.441407 88.441407 17.6875-75.683594 75.683593zm-190.800781 24.632813 44.042969-44.042969 23.027343 23.03125c-7.835937 16.367188-5.324219 37.125 8.8125 51.261719 14.105469 14.105469 34.859375 16.660156 51.257813 8.808594l23.027344 23.027343-44.039063 44.039063zm319.972656-192.617187-21.226563-21.226563 63.675782-63.675781 21.226562 21.226562zm0 0"/></svg>