<svg height="512pt" viewBox="0 -61 512 512" width="512pt" xmlns="http://www.w3.org/2000/svg"><path d="m452 60h-392v270h392zm-30 30v158.996094l-106.042969-105.164063-44.957031 44.953125-74.957031-74.953125-106.042969 105.164063v-128.996094zm-332 210v-38.75l105.957031-105.082031 109.4375 109.4375 21.210938-21.210938-34.390625-34.394531 23.828125-23.832031 105.957031 105.082031v8.75zm0 0"/><path d="m30 375v15h452v-15c0-8.269531 6.730469-15 15-15h15v-330h-15c-8.269531 0-15-6.730469-15-15v-15h-452v15c0 8.269531-6.730469 15-15 15h-15v330h15c8.269531 0 15 6.730469 15 15zm0-317.570312c12.769531-4.527344 22.902344-14.660157 27.429688-27.429688h397.140624c4.527344 12.769531 14.660157 22.902344 27.429688 27.429688v275.140624c-12.769531 4.527344-22.902344 14.660157-27.429688 27.429688h-397.140624c-4.527344-12.769531-14.660157-22.902344-27.429688-27.429688zm0 0"/></svg>