<svg height="512pt" viewBox="0 0 512 512" width="512pt" xmlns="http://www.w3.org/2000/svg"><path d="m79.8125 208c43.835938 19.070312 100.597656 30.214844 161.1875 31.796875v31.203125h-15c-24.8125 0-45 20.1875-45 45 0 22.921875 17.234375 41.886719 39.421875 44.640625l-75.574219 76.417969 74.9375 74.941406h72.429688l74.9375-74.941406-75.574219-76.417969c22.1875-2.753906 39.421875-21.71875 39.421875-44.640625 0-24.8125-20.1875-45-45-45h-15v-31.203125c60.589844-1.582031 117.355469-12.726563 161.1875-31.796875 51.46875-22.386719 79.8125-53.640625 79.8125-88s-28.34375-65.613281-79.8125-88c-47.433594-20.636719-110.007812-32-176.1875-32s-128.753906 11.363281-176.1875 32c-51.46875 22.386719-79.8125 53.640625-79.8125 88s28.34375 65.613281 79.8125 88zm199.972656 274h-47.570312l-45.0625-45.058594 68.847656-69.609375 68.847656 69.609375zm21.214844-166c0 8.269531-6.730469 15-15 15h-60c-8.269531 0-15-6.730469-15-15s6.730469-15 15-15h60c8.269531 0 15 6.730469 15 15zm-3.097656-167.371094c-6.5625-16.738281-22.863282-28.628906-41.902344-28.628906s-35.339844 11.890625-41.902344 28.628906c-31.195312-2.082031-60.34375-6.515625-83.140625-12.707031-22.988281-6.242187-33.519531-12.570313-37.28125-15.941406 4.289063-3.878907 17.226563-11.394531 46.664063-18.292969 32.164062-7.535156 73.238281-11.6875 115.660156-11.6875s83.496094 4.152344 115.660156 11.6875c29.4375 6.902344 42.375 14.414062 46.664063 18.292969-3.761719 3.371093-14.292969 9.699219-37.28125 15.941406-22.796875 6.191406-51.945313 10.625-83.140625 12.707031zm-56.902344 46.371094v-30c0-8.269531 6.730469-15 15-15s15 6.730469 15 15v30c0 8.269531-6.730469 15-15 15s-15-6.730469-15-15zm-149.222656-135.492188c43.746094-19.027343 102.066406-29.507812 164.222656-29.507812s120.476562 10.480469 164.222656 29.507812c39.257813 17.078126 61.777344 39.128907 61.777344 60.492188s-22.519531 43.414062-61.777344 60.492188c-33.476562 14.5625-75.492187 24.109374-121.226562 27.792968 1.300781-4.199218 2.003906-8.664062 2.003906-13.285156v-16.511719c36.550781-2.5 70.164062-8.050781 95.832031-15.898437 35.464844-10.84375 52.707031-24.777344 52.707031-42.589844 0-19.441406-20.457031-34.296875-62.535156-45.40625-35.648437-9.410156-82.171875-14.59375-131.003906-14.59375s-95.355469 5.183594-131.003906 14.59375c-42.078125 11.109375-62.535156 25.964844-62.535156 45.40625 0 17.8125 17.242187 31.746094 52.707031 42.589844 25.667969 7.847656 59.28125 13.398437 95.832031 15.898437v16.511719c0 4.621094.703125 9.085938 2.003906 13.285156-45.734375-3.683594-87.75-13.230468-121.226562-27.792968-39.257813-17.078126-61.777344-39.128907-61.777344-60.492188s22.519531-43.414062 61.777344-60.492188zm0 0"/></svg>