<svg height="512pt" viewBox="-29 0 512 512" width="512pt" xmlns="http://www.w3.org/2000/svg"><path d="m214.207031 225.988281 77.386719-77.410156 42.449219 42.449219 84.902343-84.902344-106.125-106.125-84.902343 84.902344 42.453125 42.453125-77.394532 77.414062zm98.613281-183.535156 63.675782 63.671875-42.453125 42.453125-63.675781-63.675781zm0 0"/><path d="m330.191406 210.828125h90.050782v30.015625h-90.050782zm0 0"/><path d="m453.535156 270.863281h-306.738281l-30.019531-120.070312h-116.777344v30.015625h93.339844l27.085937 108.335937 32.347657 162.8125h29.914062c-1.667969 4.695313-2.582031 9.757813-2.582031 15.015625 0 24.828125 20.199219 45.027344 45.023437 45.027344 24.828125 0 45.027344-20.199219 45.027344-45.027344 0-5.257812-.914062-10.320312-2.582031-15.015625h35.179687c-1.664062 4.695313-2.582031 9.757813-2.582031 15.015625 0 24.828125 20.199219 45.027344 45.027344 45.027344s45.027343-20.199219 45.027343-45.027344c0-5.257812-.917968-10.308594-2.582031-15.007812h29.910157zm-213.398437 196.109375c0 8.277344-6.730469 15.011719-15.007813 15.011719-8.273437 0-15.007812-6.734375-15.007812-15.011719 0-8.273437 6.734375-15.007812 15.007812-15.007812 8.277344 0 15.007813 6.734375 15.007813 15.007812zm120.070312 0c0 8.277344-6.734375 15.011719-15.007812 15.011719-8.277344 0-15.007813-6.734375-15.007813-15.011719 0-8.273437 6.730469-15.007812 15.007813-15.007812 8.273437 0 15.007812 6.734375 15.007812 15.007812zm32.707031-45.023437h-215.5l-24.050781-121.070313h263.601563zm0 0"/><path d="m210.121094 330.894531h30.015625v61.035157h-30.015625zm0 0"/><path d="m270.15625 330.894531h30.015625v61.035157h-30.015625zm0 0"/><path d="m330.191406 330.894531h30.015625v61.035157h-30.015625zm0 0"/></svg>