<svg height="512pt" viewBox="0 0 512.001 512" width="512pt" xmlns="http://www.w3.org/2000/svg"><path d="m133.742188 415.539062 21.191406 21.195313 84.773437-84.773437 42.386719 42.386718 84.773438-84.773437-105.96875-105.964844-84.769532 84.773437 42.382813 42.386719zm127.15625-169.542968 63.582031 63.578125-42.386719 42.386719-63.582031-63.578126zm0 0"/><path d="m270.742188 421.59375h89.917968v29.96875h-89.917968zm0 0"/><path d="m29.972656 433.804688-29.785156 77.703124h511.8125l-30.457031-77.757812v-253.929688h29.972656v-85.367187l-255.757813-94.453125-255.757812 94.453125v85.367187h29.972656zm59.941406-253.984376v241.773438h-29.972656v-241.773438zm300.714844 254.097657-17.457031 47.617187h-234.148437l-19.136719-47.839844v-253.875h270.742187zm-335.367187 17.644531h39.492187l11.988282 29.972656h-62.96875zm349.832031 29.972656 10.988281-29.972656h40.25l11.742188 29.972656zm46.480469-59.941406h-30.972657v-241.773438h30.972657zm-421.601563-306.261719 225.785156-83.378906 225.785157 83.378906v34.515625h-451.570313zm0 0"/><path d="m255.757812 126.085938-21.191406-21.191407 21.191406-21.195312 21.195313 21.195312zm0 0"/><path d="m315.703125 126.085938-21.191406-21.191407 21.191406-21.195312 21.191406 21.195312zm0 0"/><path d="m195.816406 126.085938-21.195312-21.191407 21.195312-21.195312 21.191406 21.195312zm0 0"/></svg>