<svg height="512pt" viewBox="-16 0 512 512" width="512pt" xmlns="http://www.w3.org/2000/svg"><path d="m480 121v-121h-150v121h60v32.664062c-17.066406 6.265626-30 23.296876-30 43.335938v75h-120v-15.492188c18.253906-14.410156 30-37.460937 30-62.71875v-132.789062h-150v136c0 23.398438 10.878906 45.632812 30 59.980469v15.019531h-81.140625l-68.859375 67.714844v172.285156h330v-150h120v-165c0-19.996094-12.898438-37.058594-30-43.335938v-32.664062zm-75 60c7.988281 0 15 7.476562 15 16v15h-30v-15c0-8.523438 7.011719-16 15-16zm-202.332031 60.375c-28.742188 4.671875-52.667969-17.421875-52.667969-44.375v-66.730469l45 22.5 45-22.5v63.519531c0 23.664063-16.050781 44.121094-37.332031 47.585938zm37.332031-150.375v5.730469l-45 22.5-45-22.5v-5.730469zm-44.859375 180.984375c4.960937 0 9.875-.46875 14.859375-1.472656v10.273437l-15 15-15-15v-10.339844c4.953125 1.007813 10.023438 1.539063 15.140625 1.539063zm-36.355469 30.015625 15 15-19.390625 19.394531 21.210938 21.210938 19.394531-19.390625 19.394531 19.390625 21.210938-21.210938-19.390625-19.394531 15-15h31.039062l-67.253906 156.921875-67.253906-156.921875zm-68.78125 180c-.003906-52.292969-.003906-114.3125-.003906-120.496094v-.503906h-30v62.574219c.003906 18.613281.003906 39.179687.003906 58.425781h-30.003906v-129.714844l51.140625-50.285156h13.96875l77.144531 180zm209.996094-150v150h-82.253906l77.144531-180h95.109375v-60h30v90zm60-302h90v61h-90zm0 0"/></svg>