<svg height="512pt" viewBox="0 0 512 511" width="512pt" xmlns="http://www.w3.org/2000/svg"><path d="m166.105469 121.359375c8.261719 0 14.980469 6.722656 14.980469 14.984375h29.964843c0-19.535156-12.523437-36.1875-29.964843-42.371094v-32.542968h-29.964844v32.542968c-17.4375 6.183594-29.964844 22.835938-29.964844 42.371094 0 24.785156 20.164062 44.945312 44.949219 44.945312 8.261719 0 14.980469 6.722657 14.980469 14.984376 0 8.261718-6.71875 14.984374-14.980469 14.984374s-14.984375-6.722656-14.984375-14.984374h-29.964844c0 19.53125 12.527344 36.1875 29.964844 42.371093v32.542969h29.964844v-32.542969c17.441406-6.183593 29.964843-22.839843 29.964843-42.371093 0-24.785157-20.164062-44.949219-44.945312-44.949219-8.261719 0-14.984375-6.71875-14.984375-14.980469s6.71875-14.984375 14.984375-14.984375zm0 0"/><path d="m345.894531 301.152344c8.261719 0 14.984375 6.722656 14.984375 14.984375h29.964844c0-19.535157-12.527344-36.1875-29.964844-42.371094v-32.542969h-29.964844v32.542969c-17.441406 6.183594-29.964843 22.835937-29.964843 42.371094 0 24.78125 20.164062 44.945312 44.945312 44.945312 7.980469 0 14.984375 7.46875 14.984375 15.984375 0 8.257813-6.722656 14.980469-14.984375 14.980469s-14.980469-6.722656-14.980469-14.980469h-29.964843c0 19.53125 12.523437 36.183594 29.964843 42.371094v32.539062h29.964844v-32.539062c17.4375-6.1875 29.964844-22.839844 29.964844-42.371094 0-11.941406-4.589844-23.320312-12.929688-32.042968-8.570312-8.96875-19.941406-13.90625-32.019531-13.90625-8.261719 0-14.980469-6.71875-14.980469-14.980469s6.71875-14.984375 14.980469-14.984375zm0 0"/><path d="m511.703125 346.101562c0-90.878906-74.378906-164.8125-165.808594-164.8125-5.308593 0-10.558593.265626-15.742187.757813.496094-5.222656.761718-10.476563.761718-15.738281 0-91.425782-73.933593-165.808594-164.808593-165.808594-91.117188 0-165.808594 74.710938-165.808594 165.808594 0 24.507812 5.511719 48.886718 15.980469 70.878906l-16.277344 63.964844h70.332031c27.578125 19.355468 61.382813 29.964844 95.773438 29.964844 5.261719 0 10.515625-.265626 15.738281-.757813-.496094 5.179687-.757812 10.429687-.757812 15.742187 0 91.425782 73.933593 165.808594 164.808593 165.808594 34.390625 0 68.195313-10.609375 95.773438-29.96875h70.332031l-16.28125-63.964844c10.472656-22.042968 15.984375-46.761718 15.984375-71.875zm-345.597656-44.949218c-52.152344 0-83.847657-28.867188-85.910157-29.964844h-41.648437l9.554687-37.550781c-1.335937-3.402344-17.839843-28.125-17.839843-67.328125 0-74.90625 60.9375-135.84375 135.84375-135.84375 74.351562 0 134.84375 60.9375 134.84375 135.84375 0 7.300781-.597657 14.574218-1.753907 21.734375-53.386718 15.800781-95.558593 57.96875-111.359374 111.355469-7.15625 1.15625-14.433594 1.753906-21.730469 1.753906zm307.347656 150.824218h-41.648437c-2.1875 1.167969-33.40625 29.964844-85.910157 29.964844-74.351562 0-134.84375-60.9375-134.84375-135.839844 0-74.355468 60.492188-134.84375 134.84375-134.84375 74.90625 0 135.84375 60.488282 135.84375 134.84375 0 39.578126-16.925781 65.949219-17.839843 68.328126zm0 0"/></svg>