<svg height="512pt" viewBox="0 0 512 512" width="512pt" xmlns="http://www.w3.org/2000/svg"><path d="m482 400.070312v-76.839843l4.414062 4.398437 21.171876-21.257812-25.585938-25.476563v-188.894531h-189.679688l-36.320312-36.167969-36.320312 36.167969h-39.679688v-62h30v-30h-150v30h30v62h-60v188.894531l-25.585938 25.476563 21.171876 21.257812 4.414062-4.398437v76.839843c-17.914062 10.394532-30 29.769532-30 51.929688 0 33.085938 26.914062 60 60 60h392c33.085938 0 60-26.914062 60-60 0-22.160156-12.085938-41.535156-30-51.929688zm-30-278.070312v129.015625l-129.554688-129.015625zm-181 111.214844v68.785156h-30v-68.785156l15-15zm-151-203.214844h30v62h-30zm-60 92h129.554688l-129.554688 129.015625zm0 171.355469 181-180.25v77.679687l-30 30v111.214844h90v-111.214844l-30-30v-77.679687l181 180.25v98.644531c-24.261719 0-45.203125 14.472656-54.648438 35.234375-6.546874-3.417969-13.839843-5.234375-21.351562-5.234375-24.8125 0-45 20.1875-45 45 0 5.257812.914062 10.304688 2.578125 15h-32.578125v-120h-90v120h-33.578125c1.664063-4.695312 2.578125-9.742188 2.578125-15 0-24.8125-20.1875-45-45-45-7.375 0-14.339844 1.78125-20.488281 4.941406-9.507813-20.609375-30.367188-34.941406-54.511719-34.941406zm211 188.644531h-30v-90h30zm-211 0c-16.542969 0-30-13.457031-30-30s13.457031-30 30-30 30 13.457031 30 30v15h30c0-8.269531 6.730469-15 15-15s15 6.730469 15 15-6.730469 15-15 15zm392 0h-76c-8.269531 0-15-6.730469-15-15s6.730469-15 15-15c8.523438 0 16 7.007812 16 15h30c0-5.183594 0-15 0-15 0-16.542969 13.457031-30 30-30s30 13.457031 30 30-13.457031 30-30 30zm0 0"/><path d="m422 272h-91v90h91zm-30 60h-31v-30h31zm0 0"/><path d="m180 272h-90v90h90zm-30 60h-30v-30h30zm0 0"/></svg>