<svg height="512pt" viewBox="-106 0 512 512" width="512pt" xmlns="http://www.w3.org/2000/svg"><path d="m234.269531 422h-24.269531v-121h30v-181h-180v181h30v121h-24.269531l-30 60h-35.730469v30h300v-30h-35.730469zm-144.269531-151v-121h120v121h-30v151h-60v-151zm-5.730469 181h131.460938l15 30h-161.460938zm0 0"/><path d="m210 60c0-33.085938-26.914062-60-60-60s-60 26.914062-60 60 26.914062 60 60 60 60-26.914062 60-60zm-60 30c-16.542969 0-30-13.457031-30-30s13.457031-30 30-30 30 13.457031 30 30-13.457031 30-30 30zm0 0"/></svg>